<mxfile host="app.diagrams.net" modified="2024-04-29T05:41:06.227Z" agent="Mozilla/5.0 (Windows NT 10.0; Win64; x64) AppleWebKit/537.36 (KHTML, like Gecko) Chrome/123.0.0.0 Safari/537.36 OPR/109.0.0.0 (Edition Yx 03)" etag="3Ta6A__jf7XfTOdxe0aS" version="24.3.1" type="device">
  <diagram id="C5RBs43oDa-KdzZeNtuy" name="Page-1">
    <mxGraphModel dx="1380" dy="783" grid="1" gridSize="10" guides="1" tooltips="1" connect="1" arrows="1" fold="1" page="1" pageScale="1" pageWidth="827" pageHeight="1169" math="0" shadow="0">
      <root>
        <mxCell id="WIyWlLk6GJQsqaUBKTNV-0" />
        <mxCell id="WIyWlLk6GJQsqaUBKTNV-1" parent="WIyWlLk6GJQsqaUBKTNV-0" />
        <mxCell id="GWMxjnHyGKg8J2kY3fZM-7" value="" style="edgeStyle=orthogonalEdgeStyle;rounded=0;orthogonalLoop=1;jettySize=auto;html=1;entryX=0.5;entryY=0;entryDx=0;entryDy=0;" edge="1" parent="WIyWlLk6GJQsqaUBKTNV-1" source="WIyWlLk6GJQsqaUBKTNV-3" target="GWMxjnHyGKg8J2kY3fZM-0">
          <mxGeometry relative="1" as="geometry">
            <Array as="points" />
          </mxGeometry>
        </mxCell>
        <mxCell id="WIyWlLk6GJQsqaUBKTNV-3" value="start" style="rounded=1;whiteSpace=wrap;html=1;fontSize=12;glass=0;strokeWidth=1;shadow=0;" parent="WIyWlLk6GJQsqaUBKTNV-1" vertex="1">
          <mxGeometry x="160" y="80" width="120" height="40" as="geometry" />
        </mxCell>
        <mxCell id="GWMxjnHyGKg8J2kY3fZM-4" value="" style="edgeStyle=orthogonalEdgeStyle;rounded=0;orthogonalLoop=1;jettySize=auto;html=1;" edge="1" parent="WIyWlLk6GJQsqaUBKTNV-1" source="GWMxjnHyGKg8J2kY3fZM-0" target="GWMxjnHyGKg8J2kY3fZM-2">
          <mxGeometry relative="1" as="geometry" />
        </mxCell>
        <mxCell id="GWMxjnHyGKg8J2kY3fZM-0" value="arr[]" style="shape=parallelogram;perimeter=parallelogramPerimeter;whiteSpace=wrap;html=1;fixedSize=1;" vertex="1" parent="WIyWlLk6GJQsqaUBKTNV-1">
          <mxGeometry x="160" y="150" width="120" height="30" as="geometry" />
        </mxCell>
        <mxCell id="GWMxjnHyGKg8J2kY3fZM-8" value="" style="edgeStyle=orthogonalEdgeStyle;rounded=0;orthogonalLoop=1;jettySize=auto;html=1;" edge="1" parent="WIyWlLk6GJQsqaUBKTNV-1" source="GWMxjnHyGKg8J2kY3fZM-2">
          <mxGeometry relative="1" as="geometry">
            <mxPoint x="220" y="260" as="targetPoint" />
          </mxGeometry>
        </mxCell>
        <mxCell id="GWMxjnHyGKg8J2kY3fZM-2" value="sizenewarr=0" style="rounded=0;whiteSpace=wrap;html=1;" vertex="1" parent="WIyWlLk6GJQsqaUBKTNV-1">
          <mxGeometry x="160" y="200" width="120" height="30" as="geometry" />
        </mxCell>
        <mxCell id="GWMxjnHyGKg8J2kY3fZM-12" value="" style="edgeStyle=orthogonalEdgeStyle;rounded=0;orthogonalLoop=1;jettySize=auto;html=1;" edge="1" parent="WIyWlLk6GJQsqaUBKTNV-1" source="GWMxjnHyGKg8J2kY3fZM-9" target="GWMxjnHyGKg8J2kY3fZM-10">
          <mxGeometry relative="1" as="geometry" />
        </mxCell>
        <mxCell id="GWMxjnHyGKg8J2kY3fZM-23" value="" style="edgeStyle=orthogonalEdgeStyle;rounded=0;orthogonalLoop=1;jettySize=auto;html=1;entryX=0;entryY=0.5;entryDx=0;entryDy=0;" edge="1" parent="WIyWlLk6GJQsqaUBKTNV-1" source="GWMxjnHyGKg8J2kY3fZM-9" target="GWMxjnHyGKg8J2kY3fZM-59">
          <mxGeometry relative="1" as="geometry">
            <mxPoint x="400" y="300" as="targetPoint" />
          </mxGeometry>
        </mxCell>
        <mxCell id="GWMxjnHyGKg8J2kY3fZM-9" value="i=0, i&amp;lt;arr.Length, i++" style="shape=hexagon;perimeter=hexagonPerimeter2;whiteSpace=wrap;html=1;fixedSize=1;" vertex="1" parent="WIyWlLk6GJQsqaUBKTNV-1">
          <mxGeometry x="160" y="260" width="120" height="80" as="geometry" />
        </mxCell>
        <mxCell id="GWMxjnHyGKg8J2kY3fZM-13" value="" style="edgeStyle=orthogonalEdgeStyle;rounded=0;orthogonalLoop=1;jettySize=auto;html=1;" edge="1" parent="WIyWlLk6GJQsqaUBKTNV-1" source="GWMxjnHyGKg8J2kY3fZM-10" target="GWMxjnHyGKg8J2kY3fZM-11">
          <mxGeometry relative="1" as="geometry" />
        </mxCell>
        <mxCell id="GWMxjnHyGKg8J2kY3fZM-10" value="arr[i].Length&amp;lt;4" style="rhombus;whiteSpace=wrap;html=1;" vertex="1" parent="WIyWlLk6GJQsqaUBKTNV-1">
          <mxGeometry x="160" y="370" width="120" height="80" as="geometry" />
        </mxCell>
        <mxCell id="GWMxjnHyGKg8J2kY3fZM-11" value="sizenewarr++" style="rounded=0;whiteSpace=wrap;html=1;" vertex="1" parent="WIyWlLk6GJQsqaUBKTNV-1">
          <mxGeometry x="160" y="480" width="120" height="30" as="geometry" />
        </mxCell>
        <mxCell id="GWMxjnHyGKg8J2kY3fZM-14" value="Yes" style="text;html=1;align=center;verticalAlign=middle;whiteSpace=wrap;rounded=0;" vertex="1" parent="WIyWlLk6GJQsqaUBKTNV-1">
          <mxGeometry x="170" y="340" width="60" height="30" as="geometry" />
        </mxCell>
        <mxCell id="GWMxjnHyGKg8J2kY3fZM-15" value="Yes" style="text;html=1;align=center;verticalAlign=middle;whiteSpace=wrap;rounded=0;" vertex="1" parent="WIyWlLk6GJQsqaUBKTNV-1">
          <mxGeometry x="170" y="440" width="60" height="30" as="geometry" />
        </mxCell>
        <mxCell id="GWMxjnHyGKg8J2kY3fZM-16" value="" style="endArrow=classic;html=1;rounded=0;exitX=0.5;exitY=1;exitDx=0;exitDy=0;entryX=0;entryY=0.5;entryDx=0;entryDy=0;" edge="1" parent="WIyWlLk6GJQsqaUBKTNV-1" source="GWMxjnHyGKg8J2kY3fZM-11" target="GWMxjnHyGKg8J2kY3fZM-9">
          <mxGeometry width="50" height="50" relative="1" as="geometry">
            <mxPoint x="250" y="340" as="sourcePoint" />
            <mxPoint x="260" y="550" as="targetPoint" />
            <Array as="points">
              <mxPoint x="220" y="540" />
              <mxPoint x="120" y="540" />
              <mxPoint x="120" y="300" />
            </Array>
          </mxGeometry>
        </mxCell>
        <mxCell id="GWMxjnHyGKg8J2kY3fZM-17" value="" style="endArrow=classic;html=1;rounded=0;exitX=1;exitY=0.5;exitDx=0;exitDy=0;" edge="1" parent="WIyWlLk6GJQsqaUBKTNV-1" source="GWMxjnHyGKg8J2kY3fZM-10">
          <mxGeometry width="50" height="50" relative="1" as="geometry">
            <mxPoint x="250" y="340" as="sourcePoint" />
            <mxPoint x="220" y="540" as="targetPoint" />
            <Array as="points">
              <mxPoint x="320" y="410" />
              <mxPoint x="320" y="540" />
            </Array>
          </mxGeometry>
        </mxCell>
        <mxCell id="GWMxjnHyGKg8J2kY3fZM-18" value="No" style="text;html=1;align=center;verticalAlign=middle;whiteSpace=wrap;rounded=0;" vertex="1" parent="WIyWlLk6GJQsqaUBKTNV-1">
          <mxGeometry x="263" y="387" width="60" height="30" as="geometry" />
        </mxCell>
        <mxCell id="GWMxjnHyGKg8J2kY3fZM-31" value="" style="edgeStyle=orthogonalEdgeStyle;rounded=0;orthogonalLoop=1;jettySize=auto;html=1;" edge="1" parent="WIyWlLk6GJQsqaUBKTNV-1" source="GWMxjnHyGKg8J2kY3fZM-25" target="GWMxjnHyGKg8J2kY3fZM-29">
          <mxGeometry relative="1" as="geometry" />
        </mxCell>
        <mxCell id="GWMxjnHyGKg8J2kY3fZM-41" value="" style="edgeStyle=orthogonalEdgeStyle;rounded=0;orthogonalLoop=1;jettySize=auto;html=1;entryX=0.5;entryY=0;entryDx=0;entryDy=0;" edge="1" parent="WIyWlLk6GJQsqaUBKTNV-1" source="GWMxjnHyGKg8J2kY3fZM-25" target="GWMxjnHyGKg8J2kY3fZM-35">
          <mxGeometry relative="1" as="geometry" />
        </mxCell>
        <mxCell id="GWMxjnHyGKg8J2kY3fZM-25" value="if newarr.Length&amp;gt;0" style="rhombus;whiteSpace=wrap;html=1;" vertex="1" parent="WIyWlLk6GJQsqaUBKTNV-1">
          <mxGeometry x="400" y="350" width="120" height="80" as="geometry" />
        </mxCell>
        <mxCell id="GWMxjnHyGKg8J2kY3fZM-32" value="" style="edgeStyle=orthogonalEdgeStyle;rounded=0;orthogonalLoop=1;jettySize=auto;html=1;" edge="1" parent="WIyWlLk6GJQsqaUBKTNV-1" source="GWMxjnHyGKg8J2kY3fZM-29" target="GWMxjnHyGKg8J2kY3fZM-30">
          <mxGeometry relative="1" as="geometry" />
        </mxCell>
        <mxCell id="GWMxjnHyGKg8J2kY3fZM-29" value="newarr[]" style="shape=document;whiteSpace=wrap;html=1;boundedLbl=1;" vertex="1" parent="WIyWlLk6GJQsqaUBKTNV-1">
          <mxGeometry x="610" y="360" width="110" height="60" as="geometry" />
        </mxCell>
        <mxCell id="GWMxjnHyGKg8J2kY3fZM-30" value="End" style="rounded=1;whiteSpace=wrap;html=1;fontSize=12;glass=0;strokeWidth=1;shadow=0;" vertex="1" parent="WIyWlLk6GJQsqaUBKTNV-1">
          <mxGeometry x="740" y="370" width="64" height="40" as="geometry" />
        </mxCell>
        <mxCell id="GWMxjnHyGKg8J2kY3fZM-33" value="No" style="text;html=1;align=center;verticalAlign=middle;whiteSpace=wrap;rounded=0;" vertex="1" parent="WIyWlLk6GJQsqaUBKTNV-1">
          <mxGeometry x="503" y="365" width="60" height="30" as="geometry" />
        </mxCell>
        <mxCell id="GWMxjnHyGKg8J2kY3fZM-45" value="" style="edgeStyle=orthogonalEdgeStyle;rounded=0;orthogonalLoop=1;jettySize=auto;html=1;" edge="1" parent="WIyWlLk6GJQsqaUBKTNV-1" source="GWMxjnHyGKg8J2kY3fZM-34" target="GWMxjnHyGKg8J2kY3fZM-44">
          <mxGeometry relative="1" as="geometry" />
        </mxCell>
        <mxCell id="GWMxjnHyGKg8J2kY3fZM-34" value="arr[i].Length&amp;lt;4" style="rhombus;whiteSpace=wrap;html=1;" vertex="1" parent="WIyWlLk6GJQsqaUBKTNV-1">
          <mxGeometry x="400" y="605" width="120" height="80" as="geometry" />
        </mxCell>
        <mxCell id="GWMxjnHyGKg8J2kY3fZM-42" value="" style="edgeStyle=orthogonalEdgeStyle;rounded=0;orthogonalLoop=1;jettySize=auto;html=1;" edge="1" parent="WIyWlLk6GJQsqaUBKTNV-1" source="GWMxjnHyGKg8J2kY3fZM-35" target="GWMxjnHyGKg8J2kY3fZM-36">
          <mxGeometry relative="1" as="geometry" />
        </mxCell>
        <mxCell id="GWMxjnHyGKg8J2kY3fZM-35" value="j=0" style="rounded=0;whiteSpace=wrap;html=1;" vertex="1" parent="WIyWlLk6GJQsqaUBKTNV-1">
          <mxGeometry x="400" y="448" width="120" height="30" as="geometry" />
        </mxCell>
        <mxCell id="GWMxjnHyGKg8J2kY3fZM-43" value="" style="edgeStyle=orthogonalEdgeStyle;rounded=0;orthogonalLoop=1;jettySize=auto;html=1;" edge="1" parent="WIyWlLk6GJQsqaUBKTNV-1" source="GWMxjnHyGKg8J2kY3fZM-36" target="GWMxjnHyGKg8J2kY3fZM-34">
          <mxGeometry relative="1" as="geometry" />
        </mxCell>
        <mxCell id="GWMxjnHyGKg8J2kY3fZM-36" value="i=0, i&amp;lt;arr.Length, i++" style="shape=hexagon;perimeter=hexagonPerimeter2;whiteSpace=wrap;html=1;fixedSize=1;" vertex="1" parent="WIyWlLk6GJQsqaUBKTNV-1">
          <mxGeometry x="400" y="501" width="120" height="80" as="geometry" />
        </mxCell>
        <mxCell id="GWMxjnHyGKg8J2kY3fZM-44" value="newarr[j]=arr[i]&lt;div&gt;j++&lt;/div&gt;" style="rounded=0;whiteSpace=wrap;html=1;" vertex="1" parent="WIyWlLk6GJQsqaUBKTNV-1">
          <mxGeometry x="400" y="710" width="120" height="40" as="geometry" />
        </mxCell>
        <mxCell id="GWMxjnHyGKg8J2kY3fZM-46" value="Yes" style="text;html=1;align=center;verticalAlign=middle;whiteSpace=wrap;rounded=0;" vertex="1" parent="WIyWlLk6GJQsqaUBKTNV-1">
          <mxGeometry x="410" y="680" width="60" height="30" as="geometry" />
        </mxCell>
        <mxCell id="GWMxjnHyGKg8J2kY3fZM-47" value="No" style="text;html=1;align=center;verticalAlign=middle;whiteSpace=wrap;rounded=0;" vertex="1" parent="WIyWlLk6GJQsqaUBKTNV-1">
          <mxGeometry x="501" y="622" width="60" height="30" as="geometry" />
        </mxCell>
        <mxCell id="GWMxjnHyGKg8J2kY3fZM-48" value="" style="endArrow=classic;html=1;rounded=0;exitX=0.5;exitY=1;exitDx=0;exitDy=0;entryX=0;entryY=0.5;entryDx=0;entryDy=0;" edge="1" parent="WIyWlLk6GJQsqaUBKTNV-1" source="GWMxjnHyGKg8J2kY3fZM-44" target="GWMxjnHyGKg8J2kY3fZM-36">
          <mxGeometry width="50" height="50" relative="1" as="geometry">
            <mxPoint x="350" y="580" as="sourcePoint" />
            <mxPoint x="370" y="560" as="targetPoint" />
            <Array as="points">
              <mxPoint x="460" y="780" />
              <mxPoint x="360" y="780" />
              <mxPoint x="360" y="540" />
            </Array>
          </mxGeometry>
        </mxCell>
        <mxCell id="GWMxjnHyGKg8J2kY3fZM-49" value="" style="endArrow=classic;html=1;rounded=0;exitX=1;exitY=0.5;exitDx=0;exitDy=0;" edge="1" parent="WIyWlLk6GJQsqaUBKTNV-1" source="GWMxjnHyGKg8J2kY3fZM-34">
          <mxGeometry width="50" height="50" relative="1" as="geometry">
            <mxPoint x="350" y="580" as="sourcePoint" />
            <mxPoint x="460" y="780" as="targetPoint" />
            <Array as="points">
              <mxPoint x="560" y="645" />
              <mxPoint x="560" y="780" />
            </Array>
          </mxGeometry>
        </mxCell>
        <mxCell id="GWMxjnHyGKg8J2kY3fZM-50" value="" style="endArrow=classic;html=1;rounded=0;exitX=1;exitY=0.5;exitDx=0;exitDy=0;entryX=1;entryY=0.75;entryDx=0;entryDy=0;" edge="1" parent="WIyWlLk6GJQsqaUBKTNV-1" source="GWMxjnHyGKg8J2kY3fZM-36" target="GWMxjnHyGKg8J2kY3fZM-33">
          <mxGeometry width="50" height="50" relative="1" as="geometry">
            <mxPoint x="490" y="580" as="sourcePoint" />
            <mxPoint x="540" y="530" as="targetPoint" />
            <Array as="points">
              <mxPoint x="560" y="540" />
            </Array>
          </mxGeometry>
        </mxCell>
        <mxCell id="GWMxjnHyGKg8J2kY3fZM-51" value="No" style="text;html=1;align=center;verticalAlign=middle;whiteSpace=wrap;rounded=0;" vertex="1" parent="WIyWlLk6GJQsqaUBKTNV-1">
          <mxGeometry x="510" y="517" width="60" height="30" as="geometry" />
        </mxCell>
        <mxCell id="GWMxjnHyGKg8J2kY3fZM-52" value="1.&amp;nbsp;&lt;span style=&quot;background-color: initial;&quot;&gt;задаем исходный массив&lt;/span&gt;" style="text;html=1;align=center;verticalAlign=middle;whiteSpace=wrap;rounded=0;" vertex="1" parent="WIyWlLk6GJQsqaUBKTNV-1">
          <mxGeometry x="30" y="150" width="130" height="30" as="geometry" />
        </mxCell>
        <mxCell id="GWMxjnHyGKg8J2kY3fZM-53" value="2. рассчитываем размер нового массива" style="text;html=1;align=center;verticalAlign=middle;whiteSpace=wrap;rounded=0;" vertex="1" parent="WIyWlLk6GJQsqaUBKTNV-1">
          <mxGeometry x="20" y="240" width="130" height="50" as="geometry" />
        </mxCell>
        <mxCell id="GWMxjnHyGKg8J2kY3fZM-56" value="3. записываем в новый массив строки с длинной больше 3-х символов, если такие строки есть в исходном массиве . Если таких строк нет, то выводим пустой массив" style="text;html=1;align=center;verticalAlign=middle;whiteSpace=wrap;rounded=0;" vertex="1" parent="WIyWlLk6GJQsqaUBKTNV-1">
          <mxGeometry x="367" y="180" width="220" height="100" as="geometry" />
        </mxCell>
        <mxCell id="GWMxjnHyGKg8J2kY3fZM-58" value="" style="edgeStyle=orthogonalEdgeStyle;rounded=0;orthogonalLoop=1;jettySize=auto;html=1;" edge="1" parent="WIyWlLk6GJQsqaUBKTNV-1">
          <mxGeometry relative="1" as="geometry">
            <mxPoint x="460" y="320" as="sourcePoint" />
            <mxPoint x="460" y="300" as="targetPoint" />
          </mxGeometry>
        </mxCell>
        <mxCell id="GWMxjnHyGKg8J2kY3fZM-61" value="" style="edgeStyle=orthogonalEdgeStyle;rounded=0;orthogonalLoop=1;jettySize=auto;html=1;" edge="1" parent="WIyWlLk6GJQsqaUBKTNV-1" source="GWMxjnHyGKg8J2kY3fZM-59" target="GWMxjnHyGKg8J2kY3fZM-25">
          <mxGeometry relative="1" as="geometry" />
        </mxCell>
        <mxCell id="GWMxjnHyGKg8J2kY3fZM-59" value="newarr[]&amp;nbsp;" style="rounded=0;whiteSpace=wrap;html=1;" vertex="1" parent="WIyWlLk6GJQsqaUBKTNV-1">
          <mxGeometry x="400" y="280" width="120" height="40" as="geometry" />
        </mxCell>
        <mxCell id="GWMxjnHyGKg8J2kY3fZM-62" value="//задаем массив newarr[] длиной sizenewarr" style="text;html=1;align=center;verticalAlign=middle;whiteSpace=wrap;rounded=0;" vertex="1" parent="WIyWlLk6GJQsqaUBKTNV-1">
          <mxGeometry x="507" y="280" width="280" height="40" as="geometry" />
        </mxCell>
        <mxCell id="GWMxjnHyGKg8J2kY3fZM-63" value="No" style="text;html=1;align=center;verticalAlign=middle;whiteSpace=wrap;rounded=0;" vertex="1" parent="WIyWlLk6GJQsqaUBKTNV-1">
          <mxGeometry x="280" y="270" width="60" height="30" as="geometry" />
        </mxCell>
      </root>
    </mxGraphModel>
  </diagram>
</mxfile>
